<?xml version="1.0" encoding="UTF-8"?>
<svg viewBox="0 0 42.999992 40.173595" xmlns="http://www.w3.org/2000/svg" xmlns:xlink="http://www.w3.org/1999/xlink">
 <defs>
  <linearGradient id="b">
   <stop stop-color="#f6e1cf" offset="0"/>
   <stop stop-color="#e19d56" offset=".5"/>
   <stop stop-color="#f4dcb7" offset="1"/>
  </linearGradient>
  <radialGradient id="d" cx="-6" cy="37.75" r="14" gradientTransform="matrix(1 0 0 .26786 0 27.638)" gradientUnits="userSpaceOnUse">
   <stop offset="0"/>
   <stop stop-opacity="0" offset="1"/>
  </radialGradient>
  <radialGradient id="a" cx="-3.0652" cy="18.305" r="18.957" gradientUnits="userSpaceOnUse" xlink:href="#b"/>
  <radialGradient id="c" cx="24" cy="32.821" r="15" gradientTransform="matrix(2.7839 0 0 1.9617 71.737 -82.84)" gradientUnits="userSpaceOnUse" xlink:href="#b"/>
 </defs>
 <g transform="translate(-117.3 43.706)">
  <path transform="matrix(-.8294 0 0 1.3794 147.5 -48.552)" d="m-4.5 14.75c0 2.6234-2.1266 4.75-4.75 4.75s-4.75-2.1266-4.75-4.75 2.1266-4.75 4.75-4.75 4.75 2.1266 4.75 4.75z" fill="#6b350b" fill-rule="evenodd"/>
  <path transform="matrix(-.63628 0 0 .9593 148.7 -42.288)" d="m-4.5 14.75c0 2.6234-2.1266 4.75-4.75 4.75s-4.75-2.1266-4.75-4.75 2.1266-4.75 4.75-4.75 4.75 2.1266 4.75 4.75z" fill="url(#a)" fill-rule="evenodd"/>
  <path transform="matrix(1.5357 0 0 1.513 148.01 -66.32)" d="m8 37.75c0 2.0711-6.268 3.75-14 3.75s-14-1.6789-14-3.75 6.268-3.75 14-3.75 14 1.6789 14 3.75z" fill="url(#d)" fill-rule="evenodd" opacity=".48454"/>
  <path transform="matrix(.8294 0 0 1.3794 129.78 -48.552)" d="m-4.5 14.75c0 2.6234-2.1266 4.75-4.75 4.75s-4.75-2.1266-4.75-4.75 2.1266-4.75 4.75-4.75 4.75 2.1266 4.75 4.75z" fill="#6b350b" fill-rule="evenodd"/>
  <path transform="matrix(.63628 0 0 .9593 128.58 -42.288)" d="m-4.5 14.75c0 2.6234-2.1266 4.75-4.75 4.75s-4.75-2.1266-4.75-4.75 2.1266-4.75 4.75-4.75 4.75 2.1266 4.75 4.75z" fill="url(#a)" fill-rule="evenodd"/>
  <path d="m152.05-25.706c7.5 8 0 19-13.5 19s-21-11-13.5-19c-4-10.5 4-18 13.5-18s17.5 7.5 13.5 18z" fill="#6b350b" fill-rule="evenodd"/>
  <path d="m132.39-38.701c-3.5732 0.2204-6.3382 3.5974-6.3382 7.9952 0 1.9152 0.48045 3.9101 1.3846 5.3084-2.1133 1.7652-3.3846 3.1916-3.3829 6.5308 3e-3 5.6078 5.4983 10.161 14.498 10.159s14.495-4.5513 14.498-10.159c2e-3 -3.3392-1.2697-4.7656-3.3829-6.5308 0.90419-1.3983 1.3847-3.3932 1.3847-5.3084 0-4.5397-2.9659-7.9952-6.7007-7.9952-2.4509 0-4.6122 1.587-5.7993 3.9608-1.1871-2.3739-3.3484-3.9608-5.7993-3.9608-0.11671 0-0.24719-0.0071-0.36246 0z" fill="url(#c)" fill-rule="evenodd"/>
  <path transform="matrix(.072971 0 0 .072971 134.66 -72.241)" d="m177.14 592.36c0 31.559-25.584 57.143-57.143 57.143s-57.143-25.584-57.143-57.143 25.584-57.143 57.143-57.143 57.143 25.584 57.143 57.143z" fill="#fff"/>
  <path transform="matrix(.048831 0 0 .055621 137.51 -62.068)" d="m177.14 592.36c0 31.559-25.584 57.143-57.143 57.143s-57.143-25.584-57.143-57.143 25.584-57.143 57.143-57.143 57.143 25.584 57.143 57.143z" stroke="#000" stroke-width=".1"/>
  <path transform="matrix(.018284 0 0 .018284 141.55 -41.562)" d="m177.14 592.36c0 31.559-25.584 57.143-57.143 57.143s-57.143-25.584-57.143-57.143 25.584-57.143 57.143-57.143 57.143 25.584 57.143 57.143z" fill="#fff" stroke="#000" stroke-width=".1"/>
  <path transform="matrix(.072971 0 0 .072971 124.93 -72.241)" d="m177.14 592.36c0 31.559-25.584 57.143-57.143 57.143s-57.143-25.584-57.143-57.143 25.584-57.143 57.143-57.143 57.143 25.584 57.143 57.143z" fill="#fff"/>
  <path transform="matrix(.048831 0 0 .055621 127.77 -62.068)" d="m177.14 592.36c0 31.559-25.584 57.143-57.143 57.143s-57.143-25.584-57.143-57.143 25.584-57.143 57.143-57.143 57.143 25.584 57.143 57.143z" stroke="#000" stroke-width=".1"/>
  <path transform="matrix(.018284 0 0 .018284 131.81 -41.562)" d="m177.14 592.36c0 31.559-25.584 57.143-57.143 57.143s-57.143-25.584-57.143-57.143 25.584-57.143 57.143-57.143 57.143 25.584 57.143 57.143z" fill="#fff" stroke="#000" stroke-width=".1"/>
  <path d="m128.47-18.586c7.548 5.6381 13.948 3.9265 20.001 0" fill="none" stroke="#6b350f" stroke-linecap="round" stroke-linejoin="round" stroke-width="1.3392"/>
 </g>
</svg>
